<svg width="149" height="26" viewBox="0 0 149 26" fill="none" xmlns="http://www.w3.org/2000/svg">
<line y1="11.5" x2="40" y2="11.5" stroke="#EA625C" stroke-width="3"/>
<path d="M58.3281 16.1719V18H52.6016V16.1719H58.3281ZM53.3594 6.625V18H51.0156V6.625H53.3594ZM67.3047 16.1719V18H61.25V16.1719H67.3047ZM62.0156 6.625V18H59.6719V6.625H62.0156ZM66.5156 11.2578V13.0391H61.25V11.2578H66.5156ZM67.2969 6.625V8.46094H61.25V6.625H67.2969ZM73.2969 8.57031L70.2031 18H67.7109L71.9375 6.625H73.5234L73.2969 8.57031ZM75.8672 18L72.7656 8.57031L72.5156 6.625H74.1172L78.3672 18H75.8672ZM75.7266 13.7656V15.6016H69.7188V13.7656H75.7266ZM79.4219 6.625H83.6641C84.5339 6.625 85.2812 6.75521 85.9062 7.01562C86.5365 7.27604 87.0208 7.66146 87.3594 8.17188C87.6979 8.68229 87.8672 9.3099 87.8672 10.0547C87.8672 10.6641 87.763 11.1875 87.5547 11.625C87.3516 12.0573 87.0625 12.4193 86.6875 12.7109C86.3177 12.9974 85.8828 13.2266 85.3828 13.3984L84.6406 13.7891H80.9531L80.9375 11.9609H83.6797C84.0911 11.9609 84.4323 11.888 84.7031 11.7422C84.974 11.5964 85.1771 11.3932 85.3125 11.1328C85.4531 10.8724 85.5234 10.5703 85.5234 10.2266C85.5234 9.86198 85.4557 9.54688 85.3203 9.28125C85.1849 9.01562 84.9792 8.8125 84.7031 8.67188C84.4271 8.53125 84.0807 8.46094 83.6641 8.46094H81.7656V18H79.4219V6.625ZM85.7812 18L83.1875 12.9297L85.6641 12.9141L88.2891 17.8906V18H85.7812ZM98.9297 6.625V18H96.5859L92.0156 10.375V18H89.6719V6.625H92.0156L96.5938 14.2578V6.625H98.9297ZM106.023 6.625H108.008L110.93 14.9766L113.852 6.625H115.836L111.727 18H110.133L106.023 6.625ZM104.953 6.625H106.93L107.289 14.7656V18H104.953V6.625ZM114.93 6.625H116.914V18H114.57V14.7656L114.93 6.625ZM128.312 12.0469V12.5859C128.312 13.4505 128.195 14.2266 127.961 14.9141C127.727 15.6016 127.396 16.1875 126.969 16.6719C126.542 17.151 126.031 17.5182 125.438 17.7734C124.849 18.0286 124.195 18.1562 123.477 18.1562C122.763 18.1562 122.109 18.0286 121.516 17.7734C120.927 17.5182 120.417 17.151 119.984 16.6719C119.552 16.1875 119.216 15.6016 118.977 14.9141C118.742 14.2266 118.625 13.4505 118.625 12.5859V12.0469C118.625 11.1771 118.742 10.401 118.977 9.71875C119.211 9.03125 119.542 8.44531 119.969 7.96094C120.401 7.47656 120.911 7.10677 121.5 6.85156C122.094 6.59635 122.747 6.46875 123.461 6.46875C124.18 6.46875 124.833 6.59635 125.422 6.85156C126.016 7.10677 126.526 7.47656 126.953 7.96094C127.385 8.44531 127.719 9.03125 127.953 9.71875C128.193 10.401 128.312 11.1771 128.312 12.0469ZM125.945 12.5859V12.0312C125.945 11.4271 125.891 10.8958 125.781 10.4375C125.672 9.97917 125.51 9.59375 125.297 9.28125C125.083 8.96875 124.823 8.73438 124.516 8.57812C124.208 8.41667 123.857 8.33594 123.461 8.33594C123.065 8.33594 122.714 8.41667 122.406 8.57812C122.104 8.73438 121.846 8.96875 121.633 9.28125C121.424 9.59375 121.266 9.97917 121.156 10.4375C121.047 10.8958 120.992 11.4271 120.992 12.0312V12.5859C120.992 13.1849 121.047 13.7161 121.156 14.1797C121.266 14.638 121.427 15.026 121.641 15.3438C121.854 15.6562 122.115 15.8932 122.422 16.0547C122.729 16.2161 123.081 16.2969 123.477 16.2969C123.872 16.2969 124.224 16.2161 124.531 16.0547C124.839 15.8932 125.096 15.6562 125.305 15.3438C125.513 15.026 125.672 14.638 125.781 14.1797C125.891 13.7161 125.945 13.1849 125.945 12.5859ZM130 6.625H134.242C135.112 6.625 135.859 6.75521 136.484 7.01562C137.115 7.27604 137.599 7.66146 137.938 8.17188C138.276 8.68229 138.445 9.3099 138.445 10.0547C138.445 10.6641 138.341 11.1875 138.133 11.625C137.93 12.0573 137.641 12.4193 137.266 12.7109C136.896 12.9974 136.461 13.2266 135.961 13.3984L135.219 13.7891H131.531L131.516 11.9609H134.258C134.669 11.9609 135.01 11.888 135.281 11.7422C135.552 11.5964 135.755 11.3932 135.891 11.1328C136.031 10.8724 136.102 10.5703 136.102 10.2266C136.102 9.86198 136.034 9.54688 135.898 9.28125C135.763 9.01562 135.557 8.8125 135.281 8.67188C135.005 8.53125 134.659 8.46094 134.242 8.46094H132.344V18H130V6.625ZM136.359 18L133.766 12.9297L136.242 12.9141L138.867 17.8906V18H136.359ZM147.883 16.1719V18H141.828V16.1719H147.883ZM142.594 6.625V18H140.25V6.625H142.594ZM147.094 11.2578V13.0391H141.828V11.2578H147.094ZM147.875 6.625V8.46094H141.828V6.625H147.875Z" fill="#EA625C"/>
</svg>
